# xmcd CD database file
#
# Track frame offsets:
#	150
#	11927
#	25882
#	36067
#	55947
#	69700
#	84222
#	101222
#	114685
#	128617
#	141072
#	155997
#	168855
#	181665
#
# Disc length: 2650 seconds
#
# Revision: 0
# Processed by: cddbd v1.4PL0 Copyright (c) Steve Scherf et al.
# Submitted via: CDex 1.40Beta9
#
DISCID=b90a580e
DTITLE=ROCKBOTTOM JAMES and THE DETONATORS - Everyone Stay Calm
DYEAR=1999
DGENRE=Country
TTITLE0=Skinny Skinny Skinny(2.37)~
TTITLE1=Love So Much(3.06)~
TTITLE2=Long Blonde Hair(2.15)~
TTITLE3=Spaceman In My Loungeroom(4.25)~
TTITLE4=That Girl Would look Better(3.03)~
TTITLE5=Queensland Moon(3.13)~
TTITLE6=One Drink(3.46)~
TTITLE7=Live It Up(2.59)~
TTITLE8=Hot Rod Tip Truck(3.05)~
TTITLE9=Burn Rubber Burn(2.46)~
TTITLE10=She's Dynamite(3.19)~
TTITLE11=Six Days On The Road(2.51)~
TTITLE12=My Girl's A Doll(2.50)~
TTITLE13=Team Cream(3.48)~
EXTD=YEAR: 1999 ID3G: 2
EXTT0=
EXTT1=
EXTT2=
EXTT3=
EXTT4=
EXTT5=
EXTT6=
EXTT7=
EXTT8=
EXTT9=
EXTT10=
EXTT11=
EXTT12=
EXTT13=
PLAYORDER=
